# Blender v2.79 (sub 0) OBJ File: ''
# www.blender.org
mtllib new_ppp2.mtl
o ppp.001
v -0.132571 -0.042076 0.625355
v 0.067429 -0.042076 0.625355
v 0.067429 0.157924 0.625355
v -0.132571 0.157924 0.625355
v -0.585912 0.770291 1.133647
v -0.412706 0.870291 1.133647
v 0.487293 0.770291 -0.266353
v 0.314088 0.870291 -0.266353
v -0.156141 0.150392 0.269653
v 0.043859 0.150392 0.269653
v 0.043859 -0.049608 0.269653
v -0.156141 -0.049608 0.269653
v -0.585912 -0.688555 -0.266353
v -0.412706 -0.788555 -0.266353
v 0.487293 -0.688555 1.133647
v 0.314088 -0.788555 1.133647
v 0.780114 0.404265 1.133647
v 0.680113 -0.495735 -0.266353
v 0.780114 -0.322529 -0.266353
v 0.680113 0.577471 1.133647
v -0.878732 0.404265 -0.266353
v -0.778732 -0.495735 1.133647
v -0.878732 -0.322529 1.133647
v -0.778732 0.577471 -0.266353
v -0.082126 0.549713 0.833647
v -0.275311 0.497949 0.833647
v 0.176693 0.497949 0.033647
v -0.016492 0.549713 0.033647
v -0.082126 -0.467977 0.033647
v -0.275311 -0.416213 0.033647
v 0.176693 -0.416213 0.833647
v -0.016492 -0.467977 0.833647
v 0.407771 -0.185134 0.033647
v 0.459535 0.073685 0.833647
v 0.459535 0.008051 0.033647
v 0.407771 0.266870 0.833647
v -0.506390 -0.185134 0.833647
v -0.558154 0.073685 0.033647
v -0.558154 0.008051 0.833647
v -0.506390 0.266870 0.033647
v -0.829370 0.121730 0.442578
v 0.433984 -0.054073 0.438750
v 0.050691 -0.059132 0.434923
v -0.149309 -0.059132 0.434923
v 0.045632 0.524161 0.438751
v 0.433323 0.139112 0.438751
v -0.147553 0.523501 0.438751
v 0.730751 -0.039993 0.442578
v -0.531942 -0.057375 0.438750
v 0.729476 0.133213 0.442578
v -0.149309 0.140868 0.434923
v -0.828094 -0.051476 0.442578
v 0.043035 -0.737917 0.442578
v -0.532603 0.135810 0.438751
v 0.048934 -0.441764 0.438750
v -0.130171 -0.739193 0.442578
v 0.031552 0.820929 0.442578
v -0.144251 -0.442425 0.438750
v -0.141654 0.819653 0.442578
v 0.050691 0.140868 0.434923
v -0.804051 0.349601 0.088113
v 0.052466 -0.055906 0.350317
v -0.147534 -0.055906 0.350317
v 0.111162 0.511055 0.236199
v -0.082023 0.536607 0.236199
v 0.705433 -0.267864 0.088113
v -0.545048 0.008155 0.236199
v -0.147534 0.144094 0.350317
v -0.519497 0.201340 0.236199
v 0.259423 0.795610 0.088113
v 0.086217 0.844972 0.088113
v 0.052466 0.144094 0.350317
v 0.420878 -0.119604 0.236199
v 0.446429 0.073581 0.236199
v 0.754794 -0.094658 0.088113
v -0.853413 0.176395 0.088113
v -0.184836 -0.763236 0.088112
v -0.016596 -0.454871 0.236199
v -0.358042 -0.713874 0.088112
v -0.209781 -0.429319 0.236199
v 0.446760 0.009806 0.636199
v 0.420547 0.202991 0.636199
v 0.704795 0.355342 0.788113
v -0.803413 -0.273605 0.788113
v 0.265164 -0.713236 0.788112
v 0.112813 -0.428989 0.636199
v 0.091958 -0.763874 0.788112
v -0.080372 -0.455201 0.636199
v -0.854051 -0.100400 0.788113
v 0.062668 -0.045566 0.519346
v -0.137332 -0.045566 0.519346
v -0.018247 0.536937 0.636199
v -0.211432 0.510725 0.636199
v 0.755432 0.182136 0.788113
v -0.519166 -0.121255 0.636199
v -0.137332 0.154434 0.519346
v -0.545379 0.071930 0.636199
v -0.190577 0.845610 0.788113
v -0.363783 0.794972 0.788113
v 0.062668 0.154434 0.519346
v 0.553300 -0.351106 -0.126660
v 0.553300 0.432842 0.993955
v 0.630839 -0.168597 -0.126660
v 0.630839 0.250333 0.993955
v 0.591575 0.135959 0.440796
v 0.592564 -0.046550 0.440796
v 0.611207 -0.016319 0.157068
v 0.572932 -0.198828 0.157068
v 0.611702 0.101892 0.717375
v 0.572437 0.284401 0.717375
v 0.229231 -0.122133 0.183647
v 0.229231 0.203869 0.683647
v 0.255113 0.074460 0.183647
v 0.255113 0.007277 0.683647
v 0.242007 0.139990 0.436837
v 0.242337 -0.056603 0.436837
v 0.248560 0.107225 0.310242
v 0.235784 -0.089368 0.310242
v 0.248725 -0.024663 0.560242
v 0.235619 0.171930 0.560242
v -0.353732 0.074460 0.683647
v -0.327850 -0.122133 0.683647
v -0.353732 0.007277 0.183647
v -0.327850 0.203869 0.183647
v -0.340956 0.138339 0.436837
v -0.340626 -0.058254 0.436837
v -0.347179 -0.025488 0.310242
v -0.334403 0.171104 0.310242
v -0.347344 0.106399 0.560242
v -0.334238 -0.090193 0.560242
v -0.642561 -0.340434 0.983647
v -0.718443 -0.157239 0.983647
v -0.642561 0.422171 -0.116353
v -0.718443 0.238975 -0.116353
v -0.680986 0.128770 0.440664
v -0.680018 -0.054426 0.440664
v -0.699231 0.092275 0.162156
v -0.661774 0.275470 0.162156
v -0.699715 -0.014235 0.712156
v -0.661290 -0.197430 0.712156
v -0.016523 -0.266032 0.181829
v -0.213074 -0.239836 0.181829
v 0.114455 -0.239837 0.685465
v -0.082096 -0.266032 0.685465
v -0.146749 -0.253102 0.436860
v 0.049802 -0.252767 0.436860
v 0.016639 -0.259400 0.309344
v -0.179912 -0.246469 0.309344
v -0.114423 -0.259567 0.561163
v 0.082129 -0.246302 0.561163
v -0.247416 -0.628266 -0.116353
v 0.331993 -0.552384 0.983647
v 0.148798 -0.628266 0.983647
v -0.430612 -0.552384 -0.116353
v -0.137211 -0.590809 0.440664
v 0.045985 -0.589841 0.440664
v -0.100716 -0.609053 0.162156
v -0.283911 -0.571596 0.162156
v 0.005793 -0.609537 0.712156
v 0.188989 -0.571112 0.712156
v -0.084087 0.341639 0.186326
v -0.211185 0.316220 0.680968
v -0.014532 0.341639 0.680968
v 0.112566 0.316220 0.186326
v -0.148447 0.328767 0.436803
v 0.048207 0.329092 0.436803
v -0.116267 0.335203 0.311565
v 0.080386 0.322656 0.311565
v 0.016837 0.335365 0.558885
v -0.179816 0.322493 0.558885
v 0.331993 0.634120 -0.116353
v 0.148798 0.710002 -0.116353
v -0.247416 0.710002 0.983647
v -0.430612 0.634120 0.983647
v -0.144603 0.671577 0.440664
v 0.038592 0.672545 0.440664
v 0.002097 0.690790 0.162156
v 0.185293 0.653333 0.162156
v -0.104412 0.691274 0.712156
v -0.287608 0.652849 0.712156
vn 0.0000 -0.0000 1.0000
vn 0.3837 0.8899 0.2467
vn 0.0000 0.0000 -1.0000
vn 0.3863 -0.8883 -0.2483
vn 0.8899 -0.3837 0.2467
vn -0.8883 -0.3863 -0.2483
vn 0.1164 -0.5878 0.8006
vn 0.9551 -0.0670 0.2887
vn -0.1164 -0.5878 -0.8006
vn -0.9550 -0.0677 -0.2887
vn 0.2623 -0.5315 0.8055
vn 0.8202 -0.2700 0.5044
vn -0.2623 -0.5315 -0.8055
vn -0.8196 -0.2723 -0.5041
vn 0.1175 0.5875 -0.8007
vn 0.9548 0.0671 -0.2895
vn -0.1175 0.5875 0.8007
vn -0.9549 0.0665 0.2895
vn 0.2623 0.5315 -0.8055
vn 0.8196 0.2723 -0.5041
vn -0.2623 0.5315 0.8055
vn -0.8202 0.2700 0.5044
vn -0.0667 -0.9550 0.2892
vn -0.5876 0.1171 -0.8006
vn -0.0673 0.9549 -0.2892
vn -0.5876 -0.1171 0.8006
vn -0.2673 -0.8195 0.5070
vn -0.5297 0.2644 -0.8059
vn -0.2696 0.8188 -0.5067
vn -0.5297 -0.2644 0.8059
vn 0.0673 -0.9549 -0.2892
vn 0.5876 0.1171 0.8006
vn 0.0667 0.9550 0.2892
vn 0.5876 -0.1171 -0.8006
vn 0.2723 -0.8196 -0.5041
vn 0.5315 0.2623 0.8055
vn 0.2700 0.8202 0.5044
vn 0.5315 -0.2623 -0.8055
vn -0.1358 0.8568 0.4975
vn -0.1281 -0.8574 -0.4984
vn -0.0342 0.9582 0.2841
vn -0.0323 -0.9582 -0.2842
vn 0.1271 0.8561 -0.5010
vn 0.1347 -0.8554 0.5001
vn 0.0323 0.9582 -0.2842
vn 0.0342 -0.9582 0.2841
vn -0.8568 -0.1358 0.4975
vn 0.8574 -0.1281 -0.4984
vn -0.9581 -0.0341 0.2844
vn 0.9581 -0.0322 -0.2846
vn -0.8574 0.1281 -0.4984
vn 0.8568 0.1358 0.4975
vn -0.9584 0.0324 -0.2837
vn 0.9583 0.0343 0.2836
vn -0.9867 0.1370 0.0880
vn 0.9845 0.1475 -0.0948
vn -0.1370 -0.9867 0.0880
vn -0.1475 0.9845 -0.0948
vn -0.3837 -0.8899 0.2467
vn -0.8899 0.3837 0.2467
vn -0.9564 0.0818 -0.2802
vn -0.8244 0.3224 -0.4652
vn 0.9562 -0.0813 -0.2811
vn 0.8244 -0.3224 -0.4652
vn 0.0815 0.9563 -0.2807
vn 0.3198 0.8238 -0.4682
vn -0.0815 -0.9563 -0.2807
vn -0.3224 -0.8244 -0.4652
vn 0.0707 0.8563 0.5117
vn 0.0155 0.9578 0.2870
vn -0.0697 -0.8549 0.5141
vn -0.0155 -0.9578 0.2870
vn -0.8563 0.0707 0.5117
vn -0.9577 0.0154 0.2873
vn 0.8563 -0.0707 0.5117
vn 0.9580 -0.0156 0.2865
vn 0.9867 -0.1370 0.0880
vn 0.1370 0.9867 0.0880
vn -0.3863 0.8883 -0.2483
vn 0.8883 0.3863 -0.2483
vn 0.9564 0.0824 0.2802
vn 0.8238 0.3247 0.4647
vn -0.9562 -0.0819 0.2810
vn -0.8238 -0.3247 0.4647
vn 0.0821 -0.9563 0.2807
vn 0.3220 -0.8232 0.4676
vn -0.0821 0.9563 0.2807
vn -0.3247 0.8238 0.4647
vn 0.0785 -0.8555 -0.5118
vn 0.0174 -0.9578 -0.2871
vn -0.0775 0.8541 -0.5142
vn -0.0174 0.9578 -0.2871
vn 0.8555 0.0785 -0.5118
vn 0.9577 0.0173 -0.2874
vn -0.8555 -0.0785 -0.5118
vn -0.9579 -0.0175 -0.2866
vn -0.9845 -0.1475 -0.0948
vn 0.1475 -0.9845 -0.0948
vn -0.1173 0.9034 -0.4125
vn 0.4206 -0.8382 0.3471
vn -0.1065 -0.9048 0.4124
vn 0.4179 0.8393 -0.3478
vn 0.1770 -0.9026 0.3924
vn 0.1665 0.9040 -0.3937
vn -0.5815 -0.2001 0.7885
vn -0.3718 0.8376 -0.4002
vn -0.5815 0.2001 -0.7885
vn -0.3688 -0.8388 0.4005
vn -0.0195 0.9768 -0.2133
vn 0.1458 -0.9788 0.1441
vn -0.0673 -0.9879 0.1397
vn 0.2285 0.9654 -0.1256
vn 0.0367 -0.9769 0.2106
vn 0.0829 0.9874 -0.1348
vn -0.3114 -0.0203 0.9501
vn -0.1403 0.9784 -0.1521
vn -0.3897 0.0254 -0.9206
vn -0.2291 -0.9633 0.1398
vn 0.1009 -0.9902 -0.0965
vn -0.2650 0.9571 0.1168
vn 0.0466 0.9844 0.1696
vn -0.1592 -0.9722 -0.1716
vn -0.0625 -0.9841 -0.1663
vn -0.1149 0.9892 0.0905
vn 0.4154 -0.0271 -0.9092
vn 0.1542 0.9712 0.1815
vn 0.2633 0.0172 0.9646
vn 0.2700 -0.9538 -0.1314
vn 0.1191 -0.9054 -0.4075
vn -0.4249 0.8384 0.3413
vn 0.1082 0.9068 0.4073
vn -0.4222 -0.8395 -0.3420
vn -0.1683 -0.9060 -0.3884
vn -0.1789 0.9045 0.3870
vn 0.5833 -0.1978 -0.7878
vn 0.3734 0.8392 0.3953
vn 0.5833 0.1978 0.7878
vn 0.3763 -0.8381 -0.3950
vn 0.9775 0.0228 -0.2097
vn -0.9794 -0.1278 0.1561
vn -0.9869 0.0614 0.1489
vn 0.9675 -0.1622 -0.1939
vn 0.9865 -0.0770 -0.1447
vn -0.9772 -0.0386 0.2087
vn -0.9663 0.1577 0.2037
vn -0.0179 0.2703 0.9626
vn 0.9791 0.1217 -0.1629
vn 0.0258 0.3901 -0.9204
vn 0.9054 0.1191 -0.4075
vn -0.8384 -0.4249 0.3413
vn -0.9068 0.1082 0.4073
vn 0.8395 -0.4222 -0.3420
vn 0.9060 -0.1683 -0.3884
vn -0.9045 -0.1789 0.3870
vn -0.8392 0.3734 0.3953
vn -0.1978 0.5833 0.7878
vn 0.8381 0.3763 -0.3950
vn 0.1978 0.5833 -0.7878
vn -0.9904 -0.1054 -0.0893
vn 0.9469 0.3064 0.0973
vn 0.9857 -0.0522 0.1603
vn -0.9682 0.2308 -0.0966
vn 0.9894 0.1204 0.0813
vn -0.9853 0.0683 -0.1563
vn -0.9418 -0.3163 -0.1137
vn -0.0265 -0.4142 -0.9098
vn 0.9664 -0.2319 0.1108
vn 0.0193 -0.3010 0.9534
vn -0.9054 -0.1191 -0.4075
vn 0.8384 0.4249 0.3413
vn 0.9068 -0.1082 0.4073
vn -0.8395 0.4222 -0.3420
vn 0.9045 0.1789 0.3870
vn -0.9060 0.1683 -0.3884
vn -0.8381 -0.3763 -0.3950
vn -0.1978 -0.5833 -0.7878
vn 0.8392 -0.3734 0.3953
vn 0.1978 -0.5833 0.7878
usemtl None
s off
f 1//1 2//1 3//1 4//1
f 71//2 70//2 7//2 8//2
f 9//3 10//3 11//3 12//3
f 87//4 85//4 15//4 16//4
f 66//5 18//5 19//5 75//5
f 84//6 22//6 23//6 89//6
f 162//7 163//7 25//7 26//7
f 168//8 164//8 27//8 64//8
f 164//9 161//9 28//9 27//9
f 170//10 162//10 26//10 93//10
f 174//11 173//11 6//11 5//11
f 178//12 171//12 7//12 70//12
f 171//13 172//13 8//13 7//13
f 180//14 174//14 5//14 99//14
f 142//15 141//15 29//15 30//15
f 150//16 143//16 31//16 86//16
f 143//17 144//17 32//17 31//17
f 148//18 142//18 30//18 80//18
f 154//19 151//19 14//19 13//19
f 160//20 152//20 15//20 85//20
f 152//21 153//21 16//21 15//21
f 158//22 154//22 13//22 79//22
f 118//23 111//23 33//23 73//23
f 111//24 113//24 35//24 33//24
f 120//25 112//25 36//25 82//25
f 112//26 114//26 34//26 36//26
f 108//27 101//27 18//27 66//27
f 101//28 103//28 19//28 18//28
f 110//29 102//29 20//29 83//29
f 102//30 104//30 17//30 20//30
f 130//31 122//31 37//31 95//31
f 122//32 121//32 39//32 37//32
f 128//33 124//33 40//33 69//33
f 124//34 123//34 38//34 40//34
f 140//35 131//35 22//35 84//35
f 131//36 132//36 23//36 22//36
f 138//37 133//37 24//37 61//37
f 133//38 134//38 21//38 24//38
f 139//39 135//39 41//39 89//39
f 137//40 136//40 52//40 76//40
f 129//41 125//41 54//41 97//41
f 127//42 126//42 49//42 67//42
f 107//43 105//43 50//43 75//43
f 109//44 106//44 48//44 94//44
f 117//45 115//45 46//45 74//45
f 119//46 116//46 42//46 81//46
f 159//47 155//47 56//47 87//47
f 157//48 156//48 53//48 77//48
f 149//49 145//49 58//49 88//49
f 147//50 146//50 55//50 78//50
f 177//51 175//51 59//51 71//51
f 179//52 176//52 57//52 98//52
f 167//53 165//53 47//53 65//53
f 169//54 166//54 45//54 92//54
f 76//55 52//55 41//55 61//55
f 94//56 48//56 50//56 83//56
f 79//57 77//57 53//57 56//57
f 99//58 98//58 57//58 59//58
f 13//59 14//59 77//59 79//59
f 21//60 76//60 61//60 24//60
f 161//61 167//61 65//61 28//61
f 172//62 177//62 71//62 8//62
f 141//63 147//63 78//63 29//63
f 151//64 157//64 77//64 14//64
f 113//65 117//65 74//65 35//65
f 103//66 107//66 75//66 19//66
f 123//67 127//67 67//67 38//67
f 134//68 137//68 76//68 21//68
f 135//69 138//69 61//69 41//69
f 125//70 128//70 69//70 54//70
f 106//71 108//71 66//71 48//71
f 116//72 118//72 73//72 42//72
f 155//73 158//73 79//73 56//73
f 145//74 148//74 80//74 58//74
f 176//75 178//75 70//75 57//75
f 166//76 168//76 64//76 45//76
f 48//77 66//77 75//77 50//77
f 59//78 57//78 70//78 71//78
f 5//79 6//79 98//79 99//79
f 17//80 94//80 83//80 20//80
f 163//81 169//81 92//81 25//81
f 173//82 179//82 98//82 6//82
f 144//83 149//83 88//83 32//83
f 153//84 159//84 87//84 16//84
f 114//85 119//85 81//85 34//85
f 104//86 109//86 94//86 17//86
f 121//87 129//87 97//87 39//87
f 132//88 139//88 89//88 23//88
f 136//89 140//89 84//89 52//89
f 126//90 130//90 95//90 49//90
f 105//91 110//91 83//91 50//91
f 115//92 120//92 82//92 46//92
f 156//93 160//93 85//93 53//93
f 146//94 150//94 86//94 55//94
f 175//95 180//95 99//95 59//95
f 165//96 170//96 93//96 47//96
f 52//97 84//97 89//97 41//97
f 56//98 53//98 85//98 87//98
f 46//99 82//99 110//99 105//99
f 34//100 81//100 109//100 104//100
f 42//101 73//101 108//101 106//101
f 35//102 74//102 107//102 103//102
f 81//103 42//103 106//103 109//103
f 74//104 46//104 105//104 107//104
f 36//105 34//105 104//105 102//105
f 82//106 36//106 102//106 110//106
f 33//107 35//107 103//107 101//107
f 73//108 33//108 101//108 108//108
f 60//109 100//109 120//109 115//109
f 2//110 90//110 119//110 114//110
f 43//111 62//111 118//111 116//111
f 10//112 72//112 117//112 113//112
f 90//113 43//113 116//113 119//113
f 72//114 60//114 115//114 117//114
f 3//115 2//115 114//115 112//115
f 100//116 3//116 112//116 120//116
f 11//117 10//117 113//117 111//117
f 62//118 11//118 111//118 118//118
f 44//119 91//119 130//119 126//119
f 4//120 96//120 129//120 121//120
f 51//121 68//121 128//121 125//121
f 12//122 63//122 127//122 123//122
f 63//123 44//123 126//123 127//123
f 96//124 51//124 125//124 129//124
f 9//125 12//125 123//125 124//125
f 68//126 9//126 124//126 128//126
f 1//127 4//127 121//127 122//127
f 91//128 1//128 122//128 130//128
f 49//129 95//129 140//129 136//129
f 39//130 97//130 139//130 132//130
f 54//131 69//131 138//131 135//131
f 38//132 67//132 137//132 134//132
f 67//133 49//133 136//133 137//133
f 97//134 54//134 135//134 139//134
f 40//135 38//135 134//135 133//135
f 69//136 40//136 133//136 138//136
f 37//137 39//137 132//137 131//137
f 95//138 37//138 131//138 140//138
f 43//139 90//139 150//139 146//139
f 1//140 91//140 149//140 144//140
f 44//141 63//141 148//141 145//141
f 11//142 62//142 147//142 141//142
f 62//143 43//143 146//143 147//143
f 91//144 44//144 145//144 149//144
f 63//145 12//145 142//145 148//145
f 2//146 1//146 144//146 143//146
f 90//147 2//147 143//147 150//147
f 12//148 11//148 141//148 142//148
f 55//149 86//149 160//149 156//149
f 32//150 88//150 159//150 153//150
f 58//151 80//151 158//151 155//151
f 29//152 78//152 157//152 151//152
f 78//153 55//153 156//153 157//153
f 88//154 58//154 155//154 159//154
f 80//155 30//155 154//155 158//155
f 31//156 32//156 153//156 152//156
f 86//157 31//157 152//157 160//157
f 30//158 29//158 151//158 154//158
f 51//159 96//159 170//159 165//159
f 3//160 100//160 169//160 163//160
f 60//161 72//161 168//161 166//161
f 9//162 68//162 167//162 161//162
f 100//163 60//163 166//163 169//163
f 68//164 51//164 165//164 167//164
f 96//165 4//165 162//165 170//165
f 10//166 9//166 161//166 164//166
f 72//167 10//167 164//167 168//167
f 4//168 3//168 163//168 162//168
f 47//169 93//169 180//169 175//169
f 25//170 92//170 179//170 173//170
f 45//171 64//171 178//171 176//171
f 28//172 65//172 177//172 172//172
f 92//173 45//173 176//173 179//173
f 65//174 47//174 175//174 177//174
f 93//175 26//175 174//175 180//175
f 27//176 28//176 172//176 171//176
f 64//177 27//177 171//177 178//177
f 26//178 25//178 173//178 174//178
